<?xml version="1.0" encoding="UTF-8" standalone="no"?>
<svg
   xmlns:dc="http://purl.org/dc/elements/1.1/"
   xmlns:cc="http://creativecommons.org/ns#"
   xmlns:rdf="http://www.w3.org/1999/02/22-rdf-syntax-ns#"
   xmlns:svg="http://www.w3.org/2000/svg"
   xmlns="http://www.w3.org/2000/svg"
   xmlns:sodipodi="http://sodipodi.sourceforge.net/DTD/sodipodi-0.dtd"
   xmlns:inkscape="http://www.inkscape.org/namespaces/inkscape"
   sodipodi:docname="avatar.svg"
   inkscape:version="1.0 (4035a4fb49, 2020-05-01)"
   id="svg8"
   version="1.1"
   viewBox="0 0 33.141422 33.141422"
   height="33.141422mm"
   width="33.141422mm">
  <defs
     id="defs2" />
  <sodipodi:namedview
     inkscape:window-maximized="0"
     inkscape:window-y="0"
     inkscape:window-x="0"
     inkscape:window-height="729"
     inkscape:window-width="1350"
     showgrid="false"
     inkscape:document-rotation="0"
     inkscape:current-layer="layer1"
     inkscape:document-units="mm"
     inkscape:cy="113.25758"
     inkscape:cx="66.091679"
     inkscape:zoom="1.979899"
     inkscape:pageshadow="2"
     inkscape:pageopacity="0.0"
     borderopacity="1.0"
     bordercolor="#666666"
     pagecolor="#ffffff"
     id="base" />
  <metadata
     id="metadata5">
    <rdf:RDF>
      <cc:Work
         rdf:about="">
        <dc:format>image/svg+xml</dc:format>
        <dc:type
           rdf:resource="http://purl.org/dc/dcmitype/StillImage" />
        <dc:title></dc:title>
      </cc:Work>
    </rdf:RDF>
  </metadata>
  <g
     transform="translate(-272.41495,-118.53196)"
     id="layer1"
     inkscape:groupmode="layer"
     inkscape:label="Layer 1">
    <g
       inkscape:export-ydpi="110.36"
       inkscape:export-xdpi="110.36"
       id="g955">
      <rect
         style="opacity:0.98;fill:#003060;fill-opacity:1;stroke-width:0.3"
         id="rect901"
         width="33.141422"
         height="33.141422"
         x="272.41495"
         y="118.53196" />
      <g
         style="fill:#ffffff"
         id="g895"
         transform="translate(275.8874,128.00056)">
        <path
           id="path881"
           fill-rule="evenodd"
           d="M 6.387,10.018 C 2.641,7.968 2.98,1.824 7.933,0.861 L 15.037,0.427 15.503,0.006 H 8.009 A 31.66,31.66 0 0 0 4.644,0.157 C -1.441,1.345 -1.457,9.566 4.075,11.084 a 9.93,9.93 0 0 0 2.678,0.265 L 7.684,10.508 7.499,10.458 C 7.113,10.352 6.74,10.203 6.388,10.013 Z M 10.282,8.142 C 9.914,7.7 9.726,7.084 9.726,6.266 c 0,-0.64 0.098,-1.082 0.296,-1.323 a 1.14,1.14 0 0 1 0.945,-0.368 1.52,1.52 0 0 1 0.698,0.143 0.73,0.73 0 0 1 0.357,0.315 3.31,3.31 0 0 1 0.103,0.844 h 0.5 A 11.17,11.17 0 0 1 12.876,3.975 L 12.77,3.867 C 12.55,3.796 12.324,3.744 12.095,3.711 11.859,3.674 11.62,3.655 11.381,3.655 A 2.21,2.21 0 0 0 10.722,3.734 4.28,4.28 0 0 0 9.928,4.155 L 8.87,4.835 A 1.85,1.85 0 0 0 8.513,5.298 2.54,2.54 0 0 0 8.248,5.986 C 8.181,6.281 8.149,6.583 8.15,6.886 q 0,1.352 0.743,2.09 0.743,0.738 2.069,0.736 a 3.58,3.58 0 0 0 0.844,-0.101 c 0.284,-0.068 0.56,-0.169 0.82,-0.302 L 12.875,8.719 12.772,8.584 A 2.04,2.04 0 0 1 12.288,8.745 3.05,3.05 0 0 1 11.706,8.798 C 11.154,8.812 10.626,8.567 10.28,8.137 Z m 4.53,-3.161 -0.032,1.725 -0.029,1.54 a 1.78,1.78 0 0 0 0.153,0.836 1.14,1.14 0 0 0 0.5,0.45 1.85,1.85 0 0 0 0.855,0.177 3.27,3.27 0 0 0 0.344,-0.018 L 17.016,9.638 17.728,8.789 17.622,8.556 A 2.51,2.51 0 0 1 17.291,8.641 1.47,1.47 0 0 1 17.003,8.673 C 16.699,8.673 16.506,8.58 16.426,8.393 16.346,8.206 16.302,7.427 16.302,6.062 V 4.973 a 4.19,4.19 0 0 1 0.487,-0.026 l 1.058,0.05 a 6.01,6.01 0 0 1 0.14,-0.622 L 18.043,4.155 17.987,4.118 A 6.44,6.44 0 0 1 16.87,4.205 3.07,3.07 0 0 1 16.317,4.155 20.74,20.74 0 0 1 16.505,1.774 L 16.322,1.636 c -0.505,0.249 -1.028,0.457 -1.566,0.622 l 0.061,1.889 -0.812,0.529 v 0.315 a 4.53,4.53 0 0 1 0.5,-0.037 z m 4.992,-3.638 c 3.752,2.051 3.41,8.189 -1.553,9.157 l -7.096,0.434 -0.466,0.421 h 7.493 a 31.19,31.19 0 0 0 3.365,-0.143 C 27.646,10.016 27.648,1.795 22.119,0.271 21.242,0.062 20.34,-0.027 19.439,0.006 l -0.923,0.841 0.183,0.048 a 5.19,5.19 0 0 1 1.111,0.447 z"
           style="fill:#ffffff" />
        <path
           id="path883"
           d="M 4.951,13.267 H 4.829 A 0.82,0.82 0 0 0 4.803,13.061 C 4.784,13.028 4.754,13.001 4.718,12.987 4.664,12.962 4.605,12.95 4.546,12.953 4.461,12.946 4.377,12.978 4.318,13.04 a 0.54,0.54 0 0 0 -0.071,0.323 c -0.011,0.162 0.036,0.324 0.132,0.455 a 0.43,0.43 0 0 0 0.347,0.161 c 0.048,0 0.096,-0.004 0.143,-0.013 a 0.5,0.5 0 0 0 0.116,-0.037 l 0.026,0.032 A 1.64,1.64 0 0 0 4.95,14.104 1.01,1.01 0 0 1 4.752,14.178 C 4.684,14.194 4.615,14.202 4.546,14.202 4.359,14.22 4.174,14.154 4.042,14.021 3.91,13.888 3.844,13.703 3.863,13.516 3.862,13.442 3.87,13.368 3.887,13.296 3.9,13.237 3.922,13.18 3.951,13.127 3.976,13.086 4.006,13.049 4.041,13.016 4.062,13 4.147,12.945 4.306,12.852 a 1.03,1.03 0 0 1 0.19,-0.103 0.53,0.53 0 0 1 0.161,-0.019 1.22,1.22 0 0 1 0.172,0 c 0.056,0.008 0.111,0.021 0.164,0.04 l 0.026,0.027 c -0.035,0.15 -0.056,0.304 -0.061,0.458 z m 1.503,0.616 0.042,0.042 -0.066,0.143 C 6.358,14.111 6.281,14.144 6.2,14.166 6.114,14.19 6.025,14.202 5.935,14.2 A 0.69,0.69 0 0 1 5.427,14.012 0.71,0.71 0 0 1 5.242,13.483 1.03,1.03 0 0 1 5.295,13.128 c 0.031,-0.076 0.082,-0.142 0.148,-0.19 a 1.59,1.59 0 0 1 0.233,-0.143 0.63,0.63 0 0 1 0.291,-0.069 0.6,0.6 0 0 1 0.402,0.135 0.55,0.55 0 0 1 0.159,0.437 v 0.114 L 6.287,13.457 H 5.962 5.639 c 10e-4,0.142 0.055,0.279 0.151,0.384 a 0.45,0.45 0 0 0 0.333,0.13 c 0.056,0 0.113,-0.008 0.167,-0.024 0.054,-0.016 0.112,-0.041 0.164,-0.071 z M 5.628,13.309 H 5.893 6.139 V 13.235 C 6.149,13.143 6.128,13.05 6.081,12.97 6.038,12.915 5.971,12.885 5.901,12.888 5.852,12.887 5.804,12.901 5.763,12.928 5.722,12.955 5.692,12.992 5.676,13.036 a 1.13,1.13 0 0 0 -0.042,0.265 z m 1.109,0.86 V 14.05 c 0.06,0 0.12,-0.009 0.177,-0.026 0.017,-0.022 0.025,-0.049 0.024,-0.077 v -0.529 -0.323 c 0.006,-0.032 0.006,-0.066 0,-0.098 C 6.932,12.989 6.924,12.983 6.914,12.981 a 0.95,0.95 0 0 0 -0.169,0 V 12.865 C 6.829,12.861 6.912,12.85 6.994,12.831 a 1.99,1.99 0 0 0 0.283,-0.079 h 0.04 c 0.016,0 0.021,0 0.021,0.034 v 0.013 a 1.85,1.85 0 0 0 0,0.214 L 7.566,12.82 c 0.025,-0.024 0.056,-0.041 0.09,-0.05 0.052,-0.014 0.105,-0.02 0.159,-0.018 a 0.57,0.57 0 0 1 0.265,0.053 c 0.063,0.034 0.114,0.087 0.146,0.151 a 0.71,0.71 0 0 1 0.024,0.28 v 0.206 0.415 a 0.42,0.42 0 0 0 0.016,0.14 c 0.006,0.016 0.019,0.028 0.034,0.034 a 1.21,1.21 0 0 0 0.161,0.024 v 0.119 H 8.278 8.162 7.855 L 7.839,14.156 a 4.14,4.14 0 0 0 0.04,-0.577 C 7.89,13.422 7.875,13.265 7.834,13.113 7.79,13.036 7.705,12.992 7.617,13.002 7.555,13 7.494,13.018 7.442,13.052 7.401,13.079 7.368,13.116 7.347,13.16 a 0.53,0.53 0 0 0 0,0.151 v 0.616 c -0.002,0.033 0.006,0.067 0.024,0.095 0.065,0.022 0.133,0.033 0.201,0.032 v 0.119 H 7.138 6.754 Z M 8.534,12.97 8.732,12.84 8.716,12.382 c 0.13,-0.041 0.257,-0.092 0.378,-0.153 l 0.045,0.034 A 5.29,5.29 0 0 0 9.094,12.84 c 0.045,0.004 0.09,0.004 0.135,0 0.089,10e-4 0.177,-0.006 0.265,-0.021 v 0 0.053 L 9.462,13.025 H 9.197 9.078 v 0.265 a 2.78,2.78 0 0 0 0.029,0.566 c 0.028,0.05 0.084,0.077 0.14,0.069 H 9.318 L 9.397,13.904 9.423,13.96 9.251,14.166 9.15,14.179 H 9.065 A 0.44,0.44 0 0 1 8.859,14.137 C 8.809,14.112 8.766,14.074 8.737,14.026 A 0.46,0.46 0 0 1 8.724,13.843 q 0,-0.071 0,-0.373 0,-0.302 0,-0.421 H 8.65 c -0.041,-0.003 -0.081,-0.003 -0.122,0 V 12.97 Z m 2.31,0.913 0.042,0.042 -0.066,0.143 c -0.072,0.043 -0.149,0.076 -0.23,0.098 -0.086,0.024 -0.175,0.036 -0.265,0.034 A 0.69,0.69 0 0 1 9.817,14.012 0.71,0.71 0 0 1 9.632,13.483 1.03,1.03 0 0 1 9.685,13.128 c 0.031,-0.076 0.082,-0.142 0.148,-0.19 a 1.59,1.59 0 0 1 0.233,-0.143 0.63,0.63 0 0 1 0.291,-0.069 0.6,0.6 0 0 1 0.402,0.135 0.55,0.55 0 0 1 0.159,0.437 v 0.114 l -0.241,0.045 h -0.325 -0.333 c 10e-4,0.142 0.055,0.279 0.151,0.384 a 0.45,0.45 0 0 0 0.333,0.13 c 0.056,0 0.113,-0.008 0.167,-0.024 0.054,-0.016 0.112,-0.041 0.164,-0.071 z m -0.826,-0.574 h 0.265 0.246 v -0.074 c 0.008,-0.093 -0.016,-0.186 -0.066,-0.265 -0.043,-0.055 -0.11,-0.085 -0.18,-0.082 -0.049,-10e-4 -0.097,0.013 -0.138,0.04 -0.041,0.027 -0.071,0.064 -0.087,0.108 a 1.13,1.13 0 0 0 -0.042,0.265 z m 1.058,0.86 V 14.05 c 0.058,0 0.116,-0.006 0.172,-0.018 0.012,-0.006 0.021,-0.017 0.026,-0.029 0.015,-0.051 0.022,-0.103 0.019,-0.156 v -0.394 -0.405 c 0,-0.021 -0.009,-0.041 -0.026,-0.053 -0.061,-0.018 -0.124,-0.025 -0.188,-0.021 v -0.116 c 0.144,-0.01 0.286,-0.033 0.426,-0.069 l 0.153,-0.058 c 0,0 0.021,0 0.021,0.029 v 0.018 0.265 c 0.059,-0.058 0.115,-0.12 0.167,-0.185 0.033,-0.043 0.073,-0.08 0.119,-0.108 0.042,-0.018 0.087,-0.026 0.132,-0.024 a 0.3,0.3 0 0 1 0.095,0.016 l -0.019,0.405 -0.066,0.021 c -0.018,-0.032 -0.043,-0.06 -0.074,-0.079 -0.031,-0.019 -0.067,-0.025 -0.103,-0.024 -0.054,-10e-4 -0.107,0.015 -0.151,0.048 -0.039,0.025 -0.068,0.062 -0.082,0.106 -0.007,0.1 -0.007,0.201 0,0.302 -0.007,0.146 -0.007,0.293 0,0.439 0,0.022 0.009,0.042 0.026,0.056 a 0.73,0.73 0 0 0 0.22,0.032 v 0.119 H 11.779 11.514 11.249 Z M 13,12.97 13.196,12.84 13.18,12.382 c 0.131,-0.04 0.259,-0.092 0.381,-0.153 l 0.045,0.034 a 4.69,4.69 0 0 0 -0.045,0.577 c 0.044,0.004 0.088,0.004 0.132,0 0.089,10e-4 0.177,-0.006 0.265,-0.021 h 0.013 l -0.013,0.053 a 1.37,1.37 0 0 0 -0.034,0.153 h -0.265 -0.116 v 0.265 a 2.49,2.49 0 0 0 0.032,0.566 c 0.019,0.045 0.066,0.069 0.14,0.069 h 0.069 l 0.082,-0.021 0.024,0.056 -0.172,0.206 -0.101,0.013 h -0.085 a 0.44,0.44 0 0 1 -0.206,-0.042 c -0.05,-0.025 -0.093,-0.063 -0.122,-0.111 a 0.46,0.46 0 0 1 -0.037,-0.204 q 0,-0.071 0,-0.373 0,-0.302 0,-0.421 h -0.048 a 0.75,0.75 0 0 0 -0.119,0 z m 1.095,0.484 c -0.026,-0.201 0.042,-0.404 0.186,-0.548 0.144,-0.144 0.345,-0.213 0.547,-0.188 a 0.75,0.75 0 0 1 0.529,0.167 c 0.126,0.146 0.187,0.337 0.169,0.529 0.019,0.212 -0.048,0.423 -0.185,0.585 -0.146,0.139 -0.343,0.212 -0.545,0.201 -0.195,0.015 -0.387,-0.053 -0.529,-0.188 -0.128,-0.153 -0.193,-0.349 -0.18,-0.548 z m 0.41,-0.101 a 1.16,1.16 0 0 0 0.101,0.561 c 0.049,0.083 0.139,0.132 0.235,0.13 0.086,0.003 0.168,-0.039 0.214,-0.111 0.061,-0.123 0.086,-0.26 0.074,-0.397 0.015,-0.188 -0.016,-0.377 -0.09,-0.55 -0.052,-0.081 -0.143,-0.127 -0.238,-0.122 -0.086,0 -0.167,0.041 -0.217,0.111 -0.063,0.116 -0.09,0.247 -0.079,0.378 z m 1.238,-1.177 v -0.085 l 0.333,-0.058 0.265,-0.085 0.04,0.032 -0.021,1.479 v 0.386 a 0.68,0.68 0 0 0 0.013,0.146 c 0.008,0.014 0.021,0.026 0.037,0.032 a 0.78,0.78 0 0 0 0.175,0.018 v 0.119 h -0.156 -0.246 -0.445 v -0.119 h 0.111 c 0.034,0.002 0.067,-0.007 0.095,-0.026 0.022,-0.059 0.031,-0.122 0.026,-0.185 V 13.192 12.56 a 1.66,1.66 0 0 0 -0.016,-0.328 c -0.004,-0.011 -0.011,-0.02 -0.021,-0.026 a 0.66,0.66 0 0 0 -0.201,-0.021 z m 2.133,0.609 V 12.52 a 1.74,1.74 0 0 0 0,-0.265 c -0.003,-0.017 -0.014,-0.031 -0.029,-0.037 a 0.85,0.85 0 0 0 -0.201,-0.016 v -0.106 c 0.203,-0.018 0.403,-0.067 0.593,-0.143 l 0.04,0.034 -0.019,0.452 v 1.162 0.357 c 0.003,0.021 0.013,0.041 0.029,0.056 0.059,0.018 0.121,0.027 0.183,0.029 v 0.119 H 18.117 17.884 L 17.86,14.146 c 0,-0.101 0.021,-0.18 0.026,-0.243 -0.069,0.05 -0.175,0.138 -0.32,0.265 a 0.47,0.47 0 0 1 -0.159,0.032 0.53,0.53 0 0 1 -0.421,-0.172 0.71,0.71 0 0 1 -0.164,-0.487 0.95,0.95 0 0 1 0.034,-0.265 c 0.015,-0.064 0.041,-0.125 0.077,-0.18 a 0.86,0.86 0 0 1 0.183,-0.156 c 0.082,-0.063 0.171,-0.117 0.265,-0.161 a 0.47,0.47 0 0 1 0.185,-0.034 c 0.05,0 0.099,0.006 0.148,0.016 a 0.95,0.95 0 0 1 0.156,0.048 z m 0,0.315 a 0.53,0.53 0 0 0 -0.153,-0.13 c -0.06,-0.032 -0.128,-0.048 -0.196,-0.048 -0.092,-0.007 -0.181,0.034 -0.235,0.108 a 0.64,0.64 0 0 0 -0.079,0.365 c -0.01,0.139 0.024,0.278 0.098,0.397 a 0.31,0.31 0 0 0 0.265,0.13 0.34,0.34 0 0 0 0.193,-0.061 c 0.047,-0.024 0.084,-0.063 0.106,-0.111 0.016,-0.127 0.021,-0.256 0.016,-0.384 v -0.249 z m 0.77,0.357 c -0.027,-0.202 0.041,-0.405 0.185,-0.549 0.144,-0.144 0.346,-0.213 0.548,-0.187 a 0.75,0.75 0 0 1 0.529,0.167 c 0.126,0.146 0.187,0.337 0.169,0.529 0.013,0.21 -0.057,0.416 -0.196,0.574 a 0.73,0.73 0 0 1 -0.545,0.201 c -0.195,0.014 -0.387,-0.054 -0.529,-0.188 A 0.77,0.77 0 0 1 18.63,13.456 Z m 0.4,-0.093 a 1.13,1.13 0 0 0 0.101,0.561 c 0.049,0.083 0.139,0.132 0.235,0.13 0.085,0.004 0.166,-0.039 0.212,-0.111 a 0.74,0.74 0 0 0 0.077,-0.397 1.16,1.16 0 0 0 -0.093,-0.55 c -0.051,-0.08 -0.141,-0.126 -0.235,-0.122 -0.086,0 -0.167,0.041 -0.217,0.111 -0.063,0.116 -0.09,0.247 -0.079,0.378 z m 1.423,0.323 c -0.001,0.072 0.006,0.144 0.021,0.214 0.029,0.047 0.071,0.084 0.122,0.106 0.064,0.033 0.135,0.049 0.206,0.048 0.076,0.005 0.152,-0.016 0.214,-0.061 a 0.19,0.19 0 0 0 0.071,-0.156 c 0.003,-0.049 -0.015,-0.097 -0.05,-0.132 -0.065,-0.048 -0.142,-0.078 -0.222,-0.087 a 1.66,1.66 0 0 1 -0.336,-0.098 c -0.051,-0.03 -0.093,-0.073 -0.122,-0.124 -0.032,-0.062 -0.048,-0.131 -0.045,-0.201 a 0.44,0.44 0 0 1 0.066,-0.241 c 0.049,-0.072 0.116,-0.129 0.196,-0.164 0.107,-0.044 0.223,-0.065 0.339,-0.061 a 1.12,1.12 0 0 1 0.405,0.071 c -0.016,0.124 -0.025,0.248 -0.026,0.373 H 21.189 C 21.19,13.111 21.182,13.047 21.165,12.986 21.144,12.955 21.115,12.93 21.08,12.915 a 0.43,0.43 0 0 0 -0.183,-0.04 c -0.069,-0.004 -0.137,0.016 -0.193,0.056 a 0.17,0.17 0 0 0 -0.066,0.14 0.14,0.14 0 0 0 0.061,0.122 0.78,0.78 0 0 0 0.296,0.093 c 0.075,0.011 0.15,0.029 0.222,0.053 0.064,0.027 0.118,0.072 0.156,0.13 0.039,0.065 0.058,0.141 0.056,0.217 0.006,0.153 -0.067,0.297 -0.193,0.384 -0.136,0.09 -0.297,0.137 -0.46,0.132 A 1.13,1.13 0 0 1 20.578,14.181 C 20.499,14.165 20.422,14.145 20.345,14.12 l -0.024,-0.024 a 3.44,3.44 0 0 0 0.021,-0.407 z"
           style="fill:#ffffff" />
      </g>
    </g>
  </g>
</svg>
