<svg xmlns="http://www.w3.org/2000/svg" viewBox="0 0 26.197 14.205" height="53.688" width="99.012" fill="#fff" xmlns:v="https://vecta.io/nano"><path d="M6.387 10.018C2.641 7.968 2.98 1.824 7.933.861l7.104-.434.466-.421H8.009a31.66 31.66 0 0 0-3.365.151c-6.085 1.188-6.101 9.409-.569 10.927a9.93 9.93 0 0 0 2.678.265l.931-.841-.185-.05c-.386-.106-.759-.255-1.111-.445zm3.895-1.876c-.368-.442-.556-1.058-.556-1.876 0-.64.098-1.082.296-1.323a1.14 1.14 0 0 1 .945-.368 1.52 1.52 0 0 1 .698.143.73.73 0 0 1 .357.315 3.31 3.31 0 0 1 .103.844h.5a11.17 11.17 0 0 1 .251-1.902l-.106-.108c-.22-.071-.446-.123-.675-.156-.236-.037-.475-.056-.714-.056a2.21 2.21 0 0 0-.659.079 4.28 4.28 0 0 0-.794.421l-1.058.68a1.85 1.85 0 0 0-.357.463 2.54 2.54 0 0 0-.265.688c-.067.295-.099.597-.098.9q0 1.352.743 2.09.743.738 2.069.736a3.58 3.58 0 0 0 .844-.101c.284-.068.56-.169.82-.302l.249-.59-.103-.135a2.04 2.04 0 0 1-.484.161 3.05 3.05 0 0 1-.582.053c-.552.014-1.08-.231-1.426-.661zm4.53-3.161l-.032 1.725-.029 1.54a1.78 1.78 0 0 0 .153.836 1.14 1.14 0 0 0 .5.45 1.85 1.85 0 0 0 .855.177 3.27 3.27 0 0 0 .344-.018l.413-.053.712-.849-.106-.233a2.51 2.51 0 0 1-.331.085 1.47 1.47 0 0 1-.288.032c-.304 0-.497-.093-.577-.28s-.124-.966-.124-2.331V4.973a4.19 4.19 0 0 1 .487-.026l1.058.05a6.01 6.01 0 0 1 .14-.622l.056-.22-.056-.037a6.44 6.44 0 0 1-1.117.087 3.07 3.07 0 0 1-.553-.05 20.74 20.74 0 0 1 .188-2.381l-.183-.138c-.505.249-1.028.457-1.566.622l.061 1.889-.812.529v.315a4.53 4.53 0 0 1 .5-.037zm4.992-3.638c3.752 2.051 3.41 8.189-1.553 9.157l-7.096.434-.466.421h7.493a31.19 31.19 0 0 0 3.365-.143c6.099-1.196 6.101-9.417.572-10.941-.877-.209-1.779-.298-2.68-.265l-.923.841.183.048a5.19 5.19 0 0 1 1.111.447z" fill-rule="evenodd"/><path d="M4.951 13.267h-.122a.82.82 0 0 0-.026-.206c-.019-.033-.049-.06-.085-.074-.054-.025-.113-.037-.172-.034-.085-.007-.169.025-.228.087a.54.54 0 0 0-.071.323c-.011.162.036.324.132.455a.43.43 0 0 0 .347.161c.048 0 .096-.004.143-.013a.5.5 0 0 0 .116-.037l.026.032a1.64 1.64 0 0 0-.061.143 1.01 1.01 0 0 1-.198.074c-.068.016-.137.024-.206.024-.187.018-.372-.048-.504-.181s-.198-.318-.179-.505c-.001-.074.007-.148.024-.22.013-.059.035-.116.064-.169.025-.041.055-.078.09-.111.021-.016.106-.071.265-.164a1.03 1.03 0 0 1 .19-.103.53.53 0 0 1 .161-.019 1.22 1.22 0 0 1 .172 0c.056.008.111.021.164.04l.026.027c-.035.15-.056.304-.061.458zm1.503.616l.042.042-.066.143c-.072.043-.149.076-.23.098-.086.024-.175.036-.265.034a.69.69 0 0 1-.508-.188.71.71 0 0 1-.185-.529 1.03 1.03 0 0 1 .053-.355c.031-.076.082-.142.148-.19a1.59 1.59 0 0 1 .233-.143.63.63 0 0 1 .291-.069.6.6 0 0 1 .402.135.55.55 0 0 1 .159.437v.114l-.241.045h-.325-.323c.001.142.055.279.151.384a.45.45 0 0 0 .333.13c.056 0 .113-.008.167-.024s.112-.041.164-.071zm-.826-.574h.265.246v-.074c.01-.092-.011-.185-.058-.265-.043-.055-.11-.085-.18-.082-.049-.001-.097.013-.138.04s-.071.064-.087.108a1.13 1.13 0 0 0-.042.265zm1.109.86v-.119c.06 0 .12-.009.177-.026.017-.022.025-.049.024-.077v-.529-.323c.006-.032.006-.066 0-.098-.006-.008-.014-.014-.024-.016a.95.95 0 0 0-.169 0v-.116c.084-.004.167-.015.249-.034a1.99 1.99 0 0 0 .283-.079h.04c.016 0 .021 0 .021.034v.013a1.85 1.85 0 0 0 0 .214l.228-.193c.025-.024.056-.041.09-.05.052-.014.105-.02.159-.018a.57.57 0 0 1 .265.053c.063.034.114.087.146.151a.71.71 0 0 1 .024.28v.206.415a.42.42 0 0 0 .016.14c.006.016.019.028.034.034a1.21 1.21 0 0 0 .161.024v.119h-.183-.116-.307l-.016-.018a4.14 4.14 0 0 0 .04-.577c.011-.157-.004-.314-.045-.466-.044-.077-.129-.121-.217-.111-.062-.002-.123.016-.175.05-.041.027-.074.064-.095.108a.53.53 0 0 0 0 .151v.616c-.002.033.006.067.024.095.065.022.133.033.201.032v.119h-.434-.384zm1.797-1.199l.198-.13-.016-.458c.13-.041.257-.092.378-.153l.045.034a5.29 5.29 0 0 0-.045.577c.045.004.09.004.135 0 .089.001.177-.006.265-.021h0v.053l-.032.153h-.265-.119v.265a2.78 2.78 0 0 0 .029.566c.028.05.084.077.14.069h.071l.079-.021.026.056-.172.206-.101.013h-.085a.44.44 0 0 1-.206-.042c-.05-.025-.093-.063-.122-.111a.46.46 0 0 1-.013-.183q0-.071 0-.373 0-.302 0-.421H8.65c-.041-.003-.081-.003-.122 0v-.079zm2.31.913l.042.042-.066.143c-.072.043-.149.076-.23.098-.086.024-.175.036-.265.034a.69.69 0 0 1-.508-.188.71.71 0 0 1-.185-.529 1.03 1.03 0 0 1 .053-.355c.031-.076.082-.142.148-.19a1.59 1.59 0 0 1 .233-.143.63.63 0 0 1 .291-.069.6.6 0 0 1 .402.135.55.55 0 0 1 .159.437v.114l-.241.045h-.325-.333c.001.142.055.279.151.384a.45.45 0 0 0 .333.13c.056 0 .113-.008.167-.024s.112-.041.164-.071zm-.826-.574h.265.246v-.074c.008-.093-.016-.186-.066-.265-.043-.055-.11-.085-.18-.082-.049-.001-.097.013-.138.04s-.071.064-.087.108a1.13 1.13 0 0 0-.042.265zm1.058.86v-.119c.058 0 .116-.006.172-.018.012-.006.021-.017.026-.029.015-.051.022-.103.019-.156v-.394-.405c0-.021-.009-.041-.026-.053-.061-.018-.124-.025-.188-.021v-.116c.144-.01.286-.033.426-.069l.153-.058s.021 0 .021.029v.018.265c.059-.058.115-.12.167-.185.033-.043.073-.08.119-.108.042-.018.087-.026.132-.024a.3.3 0 0 1 .095.016l-.019.405-.066.021c-.018-.032-.043-.06-.074-.079s-.067-.025-.103-.024c-.054-.001-.107.015-.151.048-.039.025-.068.062-.082.106-.007.1-.007.201 0 .302-.007.146-.007.293 0 .439 0 .022.009.042.026.056a.73.73 0 0 0 .22.032v.119h-.164-.265-.265zm1.924-1.199l.196-.13-.016-.458c.131-.04.259-.092.381-.153l.045.034a4.69 4.69 0 0 0-.045.577c.044.004.088.004.132 0 .089.001.177-.006.265-.021h.013l-.013.053a1.37 1.37 0 0 0-.034.153h-.265-.116v.265a2.49 2.49 0 0 0 .032.566c.019.045.066.069.14.069h.069l.082-.021.024.056-.172.206-.101.013h-.085a.44.44 0 0 1-.206-.042c-.05-.025-.093-.063-.122-.111a.46.46 0 0 1-.037-.204q0-.071 0-.373 0-.302 0-.421h-.048a.75.75 0 0 0-.119 0zm1.095.484c-.026-.201.042-.404.186-.548s.345-.213.547-.188a.75.75 0 0 1 .529.167c.126.146.187.337.169.529.019.212-.048.423-.185.585-.146.139-.343.212-.545.201-.195.015-.387-.053-.529-.188-.128-.153-.193-.349-.18-.548zm.41-.101a1.16 1.16 0 0 0 .101.561c.049.083.139.132.235.13.086.003.168-.039.214-.111.061-.123.086-.26.074-.397.015-.188-.016-.377-.09-.55-.052-.081-.143-.127-.238-.122-.086 0-.167.041-.217.111-.063.116-.09.247-.079.378zm1.238-1.177v-.085l.333-.058.265-.085.04.032-.021 1.479v.386a.68.68 0 0 0 .013.146c.008.014.021.026.037.032a.78.78 0 0 0 .175.018v.119h-.156-.246-.445v-.119h.111c.034.002.067-.007.095-.026.022-.059.031-.122.026-.185v-.638-.632a1.66 1.66 0 0 0-.016-.328c-.004-.011-.011-.02-.021-.026a.66.66 0 0 0-.201-.021zm2.133.609v-.265a1.74 1.74 0 0 0 0-.265c-.003-.017-.014-.031-.029-.037a.85.85 0 0 0-.201-.016v-.106c.203-.018.403-.067.593-.143l.04.034-.019.452v1.162.357c.003.021.013.041.029.056.059.018.121.027.183.029v.119h-.355-.233l-.024-.016c0-.101.021-.18.026-.243-.069.05-.175.138-.32.265a.47.47 0 0 1-.159.032.53.53 0 0 1-.421-.172.71.71 0 0 1-.164-.487.95.95 0 0 1 .034-.265c.015-.064.041-.125.077-.18a.86.86 0 0 1 .183-.156c.082-.063.171-.117.265-.161a.47.47 0 0 1 .185-.034c.05 0 .099.006.148.016a.95.95 0 0 1 .156.048zm0 .315a.53.53 0 0 0-.153-.13c-.06-.032-.128-.048-.196-.048-.092-.007-.181.034-.235.108a.64.64 0 0 0-.079.365c-.01.139.024.278.098.397a.31.31 0 0 0 .265.13.34.34 0 0 0 .193-.061c.047-.024.084-.063.106-.111.016-.127.021-.256.016-.384v-.249zm.77.357c-.027-.202.041-.405.185-.549s.346-.213.548-.187a.75.75 0 0 1 .529.167c.126.146.187.337.169.529.013.21-.057.416-.196.574a.73.73 0 0 1-.545.201c-.195.014-.387-.054-.529-.188a.77.77 0 0 1-.177-.548zm.4-.093a1.13 1.13 0 0 0 .101.561c.049.083.139.132.235.13.085.004.166-.039.212-.111a.74.74 0 0 0 .077-.397 1.16 1.16 0 0 0-.093-.55c-.051-.08-.141-.126-.235-.122-.086 0-.167.041-.217.111-.063.116-.09.247-.079.378zm1.423.323c-.001.072.006.144.021.214.029.047.071.084.122.106.064.033.135.049.206.048.076.005.152-.016.214-.061a.19.19 0 0 0 .071-.156c.003-.049-.015-.097-.05-.132-.065-.048-.142-.078-.222-.087a1.66 1.66 0 0 1-.336-.098c-.051-.03-.093-.073-.122-.124-.032-.062-.048-.131-.045-.201a.44.44 0 0 1 .066-.241c.049-.072.116-.129.196-.164.107-.044.223-.065.339-.061a1.12 1.12 0 0 1 .405.071c-.016.124-.025.248-.026.373h-.119c.001-.063-.007-.127-.024-.188-.021-.031-.05-.056-.085-.071a.43.43 0 0 0-.183-.04c-.069-.004-.137.016-.193.056a.17.17 0 0 0-.066.14.14.14 0 0 0 .061.122.78.78 0 0 0 .296.093c.075.011.15.029.222.053.064.027.118.072.156.13.039.065.058.141.056.217.006.153-.067.297-.193.384-.136.09-.297.137-.46.132a1.13 1.13 0 0 1-.198-.021c-.079-.016-.156-.036-.233-.061l-.024-.024a3.44 3.44 0 0 0 .021-.407z"/></svg>